<svg width="600" height="400" viewBox="0 0 600 400" xmlns="http://www.w3.org/2000/svg" role="img" aria-labelledby="title desc">
  <title id="title">Future smart city illustration</title>
  <desc id="desc">Vector depiction of a connected smart city with IoT signals and sustainability icons.</desc>
  <defs>
    <linearGradient id="missionBg" x1="0" y1="0" x2="1" y2="1">
      <stop offset="0%" stop-color="#0a2238" />
      <stop offset="100%" stop-color="#124b6a" />
    </linearGradient>
  </defs>
  <rect width="600" height="400" rx="32" fill="url(#missionBg)" />
  <g stroke="#38bdf8" stroke-width="4" opacity="0.8">
    <path d="M140 260 l60-140" />
    <path d="M220 260 l40-120" />
    <path d="M320 260 l20-100" />
    <path d="M380 260 l50-160" />
    <path d="M460 260 l30-120" />
  </g>
  <g fill="#38bdf8" opacity="0.2">
    <rect x="120" y="260" width="80" height="80" rx="16" />
    <rect x="220" y="260" width="80" height="80" rx="16" />
    <rect x="320" y="260" width="80" height="80" rx="16" />
    <rect x="420" y="260" width="80" height="80" rx="16" />
  </g>
  <g fill="#facc15">
    <circle cx="200" cy="120" r="18" />
    <circle cx="260" cy="140" r="16" />
    <circle cx="360" cy="160" r="18" />
    <circle cx="430" cy="120" r="16" />
  </g>
  <g fill="#22d3ee" opacity="0.9">
    <circle cx="160" cy="200" r="14" />
    <circle cx="280" cy="180" r="14" />
    <circle cx="360" cy="200" r="14" />
    <circle cx="460" cy="180" r="14" />
  </g>
  <g stroke="#65f0c6" stroke-width="3" stroke-linecap="round">
    <path d="M200 120 q40 40 80 0" />
    <path d="M320 160 q40 30 80 -10" />
  </g>
</svg>
