<svg width="700" height="520" viewBox="0 0 700 520" xmlns="http://www.w3.org/2000/svg" role="img" aria-labelledby="title desc">
  <title id="title">Modern operations centre illustration</title>
  <desc id="desc">Vector illustration of a glass-walled control room with digital dashboards showing streamlined operations.</desc>
  <defs>
    <linearGradient id="afterBg" x1="0" y1="0" x2="1" y2="1">
      <stop offset="0%" stop-color="#0b2742" />
      <stop offset="100%" stop-color="#134a6f" />
    </linearGradient>
    <linearGradient id="panel" x1="0" y1="0" x2="1" y2="1">
      <stop offset="0%" stop-color="#38bdf8" />
      <stop offset="100%" stop-color="#0ea5e9" />
    </linearGradient>
  </defs>
  <rect width="700" height="520" fill="url(#afterBg)" />
  <g fill="#0d3356" stroke="#38bdf8" stroke-width="4" opacity="0.8">
    <rect x="80" y="120" width="220" height="160" rx="20" />
    <rect x="280" y="160" width="160" height="140" rx="20" />
    <rect x="460" y="110" width="160" height="190" rx="20" />
  </g>
  <g>
    <rect x="100" y="140" width="180" height="60" rx="16" fill="url(#panel)" opacity="0.9" />
    <rect x="300" y="180" width="120" height="50" rx="16" fill="url(#panel)" opacity="0.8" />
    <rect x="480" y="140" width="120" height="60" rx="16" fill="url(#panel)" opacity="0.9" />
  </g>
  <g stroke="#facc15" stroke-width="4" stroke-linecap="round">
    <path d="M120 200 l60-20 l40 20 l40-10 l40 30 l40-20 l50 24" fill="none" />
  </g>
  <g fill="#1f4f70">
    <rect x="180" y="280" width="340" height="140" rx="30" />
  </g>
  <g fill="#38bdf8">
    <circle cx="240" cy="320" r="42" />
    <circle cx="460" cy="320" r="42" />
  </g>
  <g fill="#0ea5e9">
    <rect x="210" y="360" width="60" height="40" rx="12" />
    <rect x="430" y="360" width="60" height="40" rx="12" />
  </g>
  <rect x="260" y="430" width="180" height="26" rx="13" fill="#071b2d" opacity="0.5" />
</svg>
