<svg width="600" height="420" viewBox="0 0 600 420" xmlns="http://www.w3.org/2000/svg" role="img" aria-labelledby="title desc">
  <title id="title">Awards ceremony spotlight illustration</title>
  <desc id="desc">Vector illustration of a trophy on stage with spotlights referencing UK tech awards.</desc>
  <defs>
    <linearGradient id="stage" x1="0" y1="0" x2="0" y2="1">
      <stop offset="0%" stop-color="#08162b" />
      <stop offset="100%" stop-color="#112a45" />
    </linearGradient>
    <linearGradient id="spotlight" x1="0.5" y1="0" x2="0.5" y2="1">
      <stop offset="0%" stop-color="#facc15" stop-opacity="0.9" />
      <stop offset="100%" stop-color="#facc15" stop-opacity="0" />
    </linearGradient>
  </defs>
  <rect width="600" height="420" fill="url(#stage)" />
  <g opacity="0.8">
    <path d="M120 0 L280 420 H0 Z" fill="url(#spotlight)" />
    <path d="M480 0 L320 420 H600 Z" fill="url(#spotlight)" />
  </g>
  <circle cx="300" cy="140" r="90" fill="#0e1e37" stroke="#facc15" stroke-width="6" opacity="0.7" />
  <path d="M300 140 c50-20 70-70 70-70 c-40 0-70-40-70-40 s-30 40-70 40 c0 0 20 50 70 70z" fill="#facc15" />
  <path d="M300 140 c-20 20-60 40-60 80 c0 20 20 40 60 40 c40 0 60-20 60-40 c0-40-40-60-60-80z" fill="#fadc6c" />
  <rect x="250" y="260" width="100" height="40" rx="12" fill="#facc15" />
  <rect x="220" y="300" width="160" height="30" rx="15" fill="#d97706" />
  <rect x="200" y="330" width="200" height="50" rx="25" fill="#facc15" opacity="0.8" />
  <text x="300" y="362" font-size="28" text-anchor="middle" fill="#1f2937" font-family="'Inter', 'Segoe UI', sans-serif">UK TECH HONOURS</text>
</svg>
