<svg width="700" height="520" viewBox="0 0 700 520" xmlns="http://www.w3.org/2000/svg" role="img" aria-labelledby="title desc">
  <title id="title">Disorganised filing room illustration</title>
  <desc id="desc">Vector illustration of piles of paperwork and boxes representing manual processes.</desc>
  <defs>
    <linearGradient id="beforeBg" x1="0" y1="0" x2="0" y2="1">
      <stop offset="0%" stop-color="#2d1b1b" />
      <stop offset="100%" stop-color="#402323" />
    </linearGradient>
  </defs>
  <rect width="700" height="520" fill="url(#beforeBg)" />
  <g fill="#5b332e">
    <rect x="60" y="200" width="220" height="220" rx="12" />
    <rect x="260" y="240" width="200" height="200" rx="12" />
    <rect x="440" y="180" width="200" height="240" rx="12" />
  </g>
  <g fill="#f2d0a4" opacity="0.8">
    <rect x="80" y="220" width="180" height="60" />
    <rect x="280" y="260" width="160" height="60" />
    <rect x="460" y="200" width="160" height="60" />
  </g>
  <g fill="#e4b28d" opacity="0.8">
    <rect x="90" y="290" width="160" height="50" />
    <rect x="300" y="330" width="130" height="50" />
    <rect x="470" y="270" width="130" height="50" />
  </g>
  <g fill="#c7865a" opacity="0.9">
    <rect x="110" y="350" width="120" height="40" />
    <rect x="320" y="390" width="90" height="40" />
    <rect x="490" y="330" width="100" height="40" />
  </g>
  <g stroke="#f4e3c7" stroke-width="4" stroke-linecap="round" opacity="0.8">
    <path d="M80 220 l60-40" />
    <path d="M180 220 l40-40" />
    <path d="M300 260 l60-40" />
    <path d="M400 260 l20-40" />
    <path d="M460 200 l60-40" />
    <path d="M560 200 l20-40" />
  </g>
  <g fill="#7a4440" opacity="0.6">
    <rect x="180" y="140" width="40" height="60" />
    <rect x="340" y="120" width="40" height="60" />
    <rect x="520" y="140" width="40" height="60" />
  </g>
  <rect x="240" y="440" width="220" height="30" rx="15" fill="#1a0f0f" opacity="0.5" />
</svg>
