<svg width="1400" height="560" viewBox="0 0 1400 560" xmlns="http://www.w3.org/2000/svg" role="img" aria-labelledby="title desc">
  <title id="title">Customer success specialist on a video call</title>
  <desc id="desc">Vector illustration of a friendly professional on a video call with the London skyline blurred behind.</desc>
  <defs>
    <linearGradient id="contactBg" x1="0" y1="0" x2="1" y2="1">
      <stop offset="0%" stop-color="#071b2d" />
      <stop offset="100%" stop-color="#0f3255" />
    </linearGradient>
  </defs>
  <rect width="1400" height="560" fill="url(#contactBg)" />
  <g opacity="0.5">
    <rect x="180" y="120" width="320" height="200" rx="30" fill="#0c2238" />
    <rect x="560" y="140" width="320" height="180" rx="30" fill="#0c2238" />
    <rect x="940" y="100" width="320" height="220" rx="30" fill="#0c2238" />
  </g>
  <g>
    <rect x="360" y="220" width="680" height="260" rx="40" fill="#0d2740" />
    <rect x="420" y="260" width="560" height="180" rx="28" fill="#102f49" />
    <rect x="460" y="300" width="220" height="120" rx="24" fill="#0ea5e9" />
    <rect x="720" y="300" width="200" height="80" rx="24" fill="#0f172a" opacity="0.5" />
    <circle cx="520" cy="320" r="32" fill="#f8d7c5" />
    <path d="M500 360 h40 c18 0 32 14 32 32 v28 h-104 v-28 c0-18 14-32 32-32z" fill="#0f172a" />
    <circle cx="520" cy="310" r="40" fill="#f8d7c5" />
    <path d="M488 298 c12-18 32-28 32-28 s20 10 32 28 v8 c-10 12-20 18-32 18 s-22-6-32-18z" fill="#1f3c60" />
  </g>
  <rect x="620" y="360" width="320" height="36" rx="18" fill="#38bdf8" opacity="0.7" />
  <rect x="660" y="410" width="240" height="20" rx="10" fill="#38bdf8" opacity="0.4" />
</svg>
