<svg width="1000" height="520" viewBox="0 0 1000 520" xmlns="http://www.w3.org/2000/svg" role="img" aria-labelledby="title desc">
  <title id="title">Stylised global presence map</title>
  <desc id="desc">Vector map highlighting London, Accra, and Nairobi with subtle connections.</desc>
  <defs>
    <linearGradient id="mapBg" x1="0" y1="0" x2="1" y2="1">
      <stop offset="0%" stop-color="#071c30" />
      <stop offset="100%" stop-color="#0d3455" />
    </linearGradient>
  </defs>
  <rect width="1000" height="520" fill="url(#mapBg)" />
  <g fill="#12395a" opacity="0.8">
    <path d="M140 220 l40-60 l80 0 l60 80 l-40 60 l-80 0 z" />
    <path d="M360 180 l60-70 l90 20 l40 90 l-60 70 l-90-20 z" />
    <path d="M600 180 l80-60 l100 40 l40 100 l-80 60 l-100-40 z" />
    <path d="M780 260 l60-40 l80 40 l20 80 l-60 40 l-80-40 z" />
  </g>
  <g stroke="#22d3ee" stroke-width="3" stroke-linecap="round" opacity="0.8">
    <path d="M460 220 Q520 160 640 200" />
    <path d="M640 200 Q720 240 820 260" />
  </g>
  <g fill="#facc15" stroke="#fff7dc" stroke-width="3">
    <circle cx="460" cy="220" r="14" />
    <circle cx="640" cy="200" r="14" />
    <circle cx="820" cy="260" r="14" />
  </g>
  <g fill="#f8fafc" font-family="'Inter', 'Segoe UI', sans-serif" font-size="24">
    <text x="470" y="210">London</text>
    <text x="650" y="190">Accra</text>
    <text x="830" y="250">Nairobi</text>
  </g>
  <g fill="#22d3ee" opacity="0.3">
    <circle cx="460" cy="220" r="40" />
    <circle cx="640" cy="200" r="40" />
    <circle cx="820" cy="260" r="40" />
  </g>
</svg>
