<svg width="800" height="520" viewBox="0 0 800 520" xmlns="http://www.w3.org/2000/svg" role="img" aria-labelledby="title desc">
  <title id="title">Municipal sustainability illustration</title>
  <desc id="desc">Vector illustration of UK council recycling facilities and civic buildings.</desc>
  <defs>
    <linearGradient id="muniBg" x1="0" y1="0" x2="1" y2="1">
      <stop offset="0%" stop-color="#0c1f31" />
      <stop offset="100%" stop-color="#184249" />
    </linearGradient>
  </defs>
  <rect width="800" height="520" fill="url(#muniBg)" />
  <g fill="#1f4b3a" stroke="#65f0c6" stroke-width="4">
    <rect x="120" y="200" width="160" height="200" rx="24" />
    <rect x="320" y="160" width="200" height="240" rx="24" />
    <rect x="560" y="210" width="140" height="190" rx="24" />
  </g>
  <g fill="#65f0c6" opacity="0.3">
    <rect x="140" y="230" width="120" height="90" />
    <rect x="360" y="200" width="120" height="100" />
    <rect x="360" y="320" width="120" height="60" />
    <rect x="590" y="240" width="80" height="80" />
  </g>
  <g fill="#bff3d2" opacity="0.8">
    <circle cx="220" cy="360" r="30" />
    <circle cx="420" cy="350" r="34" />
    <circle cx="630" cy="330" r="28" />
  </g>
  <g stroke="#facc15" stroke-width="6" stroke-linecap="round">
    <path d="M200 260 l40 40 l40-30" />
    <path d="M400 220 l50 50 l40-30" />
    <path d="M600 260 l30 40 l30-30" />
  </g>
</svg>
