<svg width="1400" height="560" viewBox="0 0 1400 560" xmlns="http://www.w3.org/2000/svg" role="img" aria-labelledby="title desc">
  <title id="title">British public services collage illustration</title>
  <desc id="desc">Vector illustration combining banking, telecom, and municipal operations scenes.</desc>
  <defs>
    <linearGradient id="industriesBg" x1="0" y1="0" x2="1" y2="1">
      <stop offset="0%" stop-color="#071c30" />
      <stop offset="100%" stop-color="#0f3b54" />
    </linearGradient>
  </defs>
  <rect width="1400" height="560" fill="url(#industriesBg)" />
  <g opacity="0.6">
    <rect x="160" y="160" width="220" height="220" rx="24" fill="#103450" />
    <rect x="420" y="120" width="220" height="260" rx="24" fill="#103450" />
    <rect x="680" y="150" width="220" height="230" rx="24" fill="#103450" />
    <rect x="940" y="110" width="220" height="270" rx="24" fill="#103450" />
  </g>
  <g>
    <circle cx="270" cy="300" r="60" fill="#38bdf8" />
    <rect x="230" y="220" width="80" height="40" rx="12" fill="#facc15" />
    <circle cx="540" cy="260" r="70" fill="#22d3ee" />
    <rect x="500" y="320" width="80" height="40" rx="12" fill="#38bdf8" />
    <circle cx="800" cy="280" r="70" fill="#65f0c6" />
    <rect x="760" y="200" width="80" height="40" rx="12" fill="#38bdf8" />
    <circle cx="1060" cy="260" r="70" fill="#facc15" />
    <rect x="1020" y="320" width="80" height="40" rx="12" fill="#22d3ee" />
  </g>
  <rect x="580" y="360" width="240" height="32" rx="16" fill="#0b1f33" opacity="0.5" />
</svg>
