<svg width="800" height="520" viewBox="0 0 800 520" xmlns="http://www.w3.org/2000/svg" role="img" aria-labelledby="title desc">
  <title id="title">Banks and insurers facilities illustration</title>
  <desc id="desc">Vector illustration of British bank branches and ATM maintenance.</desc>
  <defs>
    <linearGradient id="banksBg" x1="0" y1="0" x2="1" y2="1">
      <stop offset="0%" stop-color="#081a2a" />
      <stop offset="100%" stop-color="#12385a" />
    </linearGradient>
  </defs>
  <rect width="800" height="520" fill="url(#banksBg)" />
  <g fill="#1c3e62" stroke="#38bdf8" stroke-width="4">
    <rect x="120" y="160" width="180" height="220" rx="20" />
    <rect x="330" y="120" width="200" height="260" rx="24" />
    <rect x="560" y="180" width="140" height="200" rx="24" />
  </g>
  <g fill="#0ea5e9" opacity="0.3">
    <rect x="150" y="190" width="120" height="80" />
    <rect x="370" y="160" width="120" height="90" />
    <rect x="370" y="270" width="120" height="70" />
    <rect x="590" y="220" width="80" height="80" />
  </g>
  <g fill="#22d3ee" opacity="0.6">
    <circle cx="210" cy="320" r="26" />
    <circle cx="430" cy="300" r="30" />
    <circle cx="630" cy="290" r="24" />
  </g>
  <path d="M210 320 l40 60" stroke="#facc15" stroke-width="6" stroke-linecap="round" />
  <path d="M430 300 l-20 60" stroke="#facc15" stroke-width="6" stroke-linecap="round" />
  <path d="M630 290 l30 50" stroke="#facc15" stroke-width="6" stroke-linecap="round" />
</svg>
