<svg width="320" height="320" viewBox="0 0 320 320" xmlns="http://www.w3.org/2000/svg" role="img" aria-labelledby="title desc">
  <title id="title">Portrait illustration of David Mensah</title>
  <desc id="desc">Vector portrait of a thoughtful engineering leader with brand blue highlights.</desc>
  <defs>
    <linearGradient id="backgroundDavid" x1="0" y1="0" x2="1" y2="1">
      <stop offset="0%" stop-color="#101c2f" />
      <stop offset="100%" stop-color="#1f3e63" />
    </linearGradient>
  </defs>
  <rect width="320" height="320" rx="160" fill="url(#backgroundDavid)" />
  <circle cx="160" cy="130" r="70" fill="#1b2433" />
  <circle cx="160" cy="130" r="58" fill="#283142" />
  <path d="M118 236 h84 c0-44-30-76-40-76 h-20 c-10 0-40 32-24 76z" fill="#0f172a" />
  <path d="M140 158 h40 c22 0 38 16 38 36 v28 h-116 v-28 c0-20 16-36 38-36z" fill="#f4dec8" />
  <circle cx="160" cy="148" r="34" fill="#f4dec8" />
  <path d="M124 140 c10-16 30-26 36-34 c6 8 26 18 36 34 v10 c-10 12-26 18-36 18 s-26-6-36-18z" fill="#1b2433" />
  <path d="M140 184 h40 c-2 16-14 26-20 26 s-18-10-20-26z" fill="#22d3ee" opacity="0.6" />
  <rect x="124" y="220" width="72" height="16" rx="8" fill="#38bdf8" opacity="0.7" />
</svg>
