<svg width="800" height="600" viewBox="0 0 800 600" xmlns="http://www.w3.org/2000/svg" role="img" aria-labelledby="title desc">
  <title id="title">Operations team reviewing analytics dashboards</title>
  <desc id="desc">Stylised illustration of analysts collaborating in a modern control room with glowing screens.</desc>
  <defs>
    <linearGradient id="room" x1="0" y1="0" x2="0" y2="1">
      <stop offset="0%" stop-color="#0f172a" />
      <stop offset="100%" stop-color="#1e293b" />
    </linearGradient>
    <linearGradient id="screen" x1="0" y1="0" x2="1" y2="1">
      <stop offset="0%" stop-color="#0ea5e9" />
      <stop offset="100%" stop-color="#22d3ee" />
    </linearGradient>
  </defs>
  <rect width="800" height="600" fill="url(#room)" />
  <rect x="120" y="140" width="560" height="260" rx="24" fill="#0b1f32" stroke="#1d4ed8" stroke-width="4" />
  <g>
    <rect x="160" y="180" width="160" height="60" rx="12" fill="url(#screen)" opacity="0.9" />
    <rect x="360" y="180" width="240" height="60" rx="12" fill="url(#screen)" opacity="0.8" />
    <rect x="160" y="260" width="220" height="60" rx="12" fill="url(#screen)" opacity="0.7" />
    <rect x="420" y="260" width="160" height="60" rx="12" fill="url(#screen)" opacity="0.6" />
  </g>
  <g fill="#1f2937">
    <path d="M240 420 c-30 0-60 40-60 90 h120 c0-50-30-90-60-90z" />
    <path d="M520 420 c-30 0-60 40-60 90 h120 c0-50-30-90-60-90z" />
  </g>
  <g fill="#38bdf8">
    <circle cx="240" cy="390" r="55" />
    <circle cx="520" cy="390" r="55" />
  </g>
  <g fill="#0ea5e9">
    <path d="M220 360 h40 c12 0 24 10 24 24 v32 h-88 v-32 c0-14 12-24 24-24z" />
    <path d="M500 360 h40 c12 0 24 10 24 24 v32 h-88 v-32 c0-14 12-24 24-24z" />
  </g>
  <g stroke="#facc15" stroke-width="4" stroke-linecap="round">
    <path d="M200 240 l60 30 l40-20 l40 24 l80-60 l40 24 l60-32" fill="none" />
    <path d="M200 300 l40 10 l40-14 l50 16 l30-12 l70 14" fill="none" opacity="0.6" />
  </g>
  <rect x="280" y="460" width="240" height="24" rx="12" fill="#0f172a" opacity="0.5" />
</svg>
