<svg width="800" height="600" viewBox="0 0 800 600" xmlns="http://www.w3.org/2000/svg" role="img" aria-labelledby="title desc">
  <title id="title">AI network overlay on a city map</title>
  <desc id="desc">Vector network nodes connecting across an abstract London street grid.</desc>
  <defs>
    <linearGradient id="grid" x1="0" y1="0" x2="1" y2="1">
      <stop offset="0%" stop-color="#051f33" />
      <stop offset="100%" stop-color="#063a5f" />
    </linearGradient>
  </defs>
  <rect width="800" height="600" fill="url(#grid)" />
  <g stroke="#0d3b66" stroke-width="2" opacity="0.4">
    <path d="M40 80 L760 80" />
    <path d="M40 160 L760 160" />
    <path d="M40 240 L760 240" />
    <path d="M40 320 L760 320" />
    <path d="M40 400 L760 400" />
    <path d="M40 480 L760 480" />
    <path d="M40 560 L760 560" />
    <path d="M80 40 L80 560" />
    <path d="M160 40 L160 560" />
    <path d="M240 40 L240 560" />
    <path d="M320 40 L320 560" />
    <path d="M400 40 L400 560" />
    <path d="M480 40 L480 560" />
    <path d="M560 40 L560 560" />
    <path d="M640 40 L640 560" />
    <path d="M720 40 L720 560" />
  </g>
  <g stroke="#38bdf8" stroke-width="4" stroke-linecap="round">
    <path d="M140 180 Q320 80 440 200 T660 220" fill="none" />
    <path d="M200 420 Q360 340 520 420 T640 460" fill="none" opacity="0.8" />
    <path d="M120 340 Q200 260 280 300 T400 280 T520 320" fill="none" opacity="0.6" />
    <path d="M180 140 Q260 240 360 260 T520 220 T620 160" fill="none" opacity="0.5" />
  </g>
  <g fill="#e0f2fe" stroke="#38bdf8" stroke-width="3">
    <circle cx="140" cy="180" r="24" />
    <circle cx="320" cy="80" r="18" />
    <circle cx="440" cy="200" r="20" />
    <circle cx="660" cy="220" r="26" />
    <circle cx="200" cy="420" r="22" />
    <circle cx="520" cy="420" r="24" />
    <circle cx="640" cy="460" r="18" />
    <circle cx="280" cy="300" r="16" />
    <circle cx="400" cy="280" r="18" />
    <circle cx="520" cy="320" r="16" />
    <circle cx="360" cy="260" r="12" />
  </g>
  <g fill="#facc15" opacity="0.8">
    <circle cx="660" cy="220" r="8" />
    <circle cx="520" cy="420" r="6" />
    <circle cx="200" cy="420" r="6" />
    <circle cx="140" cy="180" r="6" />
  </g>
</svg>
