<svg width="800" height="600" viewBox="0 0 800 600" xmlns="http://www.w3.org/2000/svg" role="img" aria-labelledby="title desc">
  <title id="title">Stylised secure data centre corridor</title>
  <desc id="desc">Vector illustration of a blue-lit corridor with server racks and glowing security shield.</desc>
  <defs>
    <linearGradient id="glow" x1="0" y1="0" x2="0" y2="1">
      <stop offset="0%" stop-color="#0f172a" />
      <stop offset="100%" stop-color="#0b2d4d" />
    </linearGradient>
    <radialGradient id="light" cx="0.5" cy="0.2" r="0.7">
      <stop offset="0%" stop-color="#2bd6ff" stop-opacity="0.8" />
      <stop offset="100%" stop-color="#0b2d4d" stop-opacity="0" />
    </radialGradient>
  </defs>
  <rect width="800" height="600" fill="url(#glow)" />
  <rect x="0" y="0" width="800" height="600" fill="url(#light)" />
  <g fill="#112b49">
    <rect x="80" y="100" width="120" height="360" rx="16" />
    <rect x="600" y="100" width="120" height="360" rx="16" />
  </g>
  <g stroke="#1cc5ff" stroke-width="3" stroke-linecap="round">
    <line x1="100" y1="160" x2="180" y2="160" />
    <line x1="620" y1="160" x2="700" y2="160" />
    <line x1="100" y1="220" x2="180" y2="220" />
    <line x1="620" y1="220" x2="700" y2="220" />
    <line x1="100" y1="280" x2="180" y2="280" />
    <line x1="620" y1="280" x2="700" y2="280" />
    <line x1="100" y1="340" x2="180" y2="340" />
    <line x1="620" y1="340" x2="700" y2="340" />
  </g>
  <path d="M400 200 l-80 40 v80 c0 60 40 110 80 140 c40-30 80-80 80-140 v-80 z" fill="#0e7490" opacity="0.6" />
  <path d="M400 220 l-60 30 v70 c0 45 30 85 60 110 c30-25 60-65 60-110 v-70 z" fill="#38bdf8" opacity="0.8" />
  <path d="M400 250 l-30 15 v45 c0 25 15 50 30 66 c15-16 30-41 30-66 v-45 z" fill="#cffafe" />
  <circle cx="400" cy="330" r="22" fill="#0f172a" />
  <path d="M400 312 l-16 12 l16 36 l16-36 z" fill="#38bdf8" />
</svg>
